<svg width="18" height="20" viewBox="0 0 18 20" fill="none" xmlns="http://www.w3.org/2000/svg">
<g clip-path="url(#clip0_212_18)">
<path d="M17.7489 5.88333C17.7488 5.54792 17.6771 5.25153 17.532 4.99715C17.3895 4.74701 17.1761 4.53736 16.8898 4.3716C14.527 3.00917 12.1619 1.6509 9.79978 0.287084C9.16297 -0.0805554 8.54554 -0.0671526 7.91346 0.305764C6.97297 0.860417 2.26429 3.55813 0.861168 4.37083C0.283321 4.70535 0.0021403 5.21729 0.00200141 5.88271C0.00109863 8.62264 0.00200141 11.3625 0.00109863 14.1025C0.00123752 14.4306 0.0699181 14.7212 0.208599 14.9717C0.351168 15.2294 0.567557 15.4449 0.860404 15.6144C2.2636 16.4271 6.9729 19.1246 7.91318 19.6794C8.54554 20.0525 9.16297 20.0658 9.79999 19.6981C12.1621 18.3342 14.5274 16.976 16.8906 15.6135C17.1835 15.4441 17.3998 15.2285 17.5424 14.971C17.6809 14.7205 17.7497 14.4299 17.7498 14.1017C17.7498 14.1017 17.7498 8.62333 17.7489 5.88333" fill="#5C8DBC"/>
<path d="M8.90265 9.9659L0.208618 14.9717C0.351188 15.2294 0.567576 15.4449 0.860424 15.6144C2.26362 16.4271 6.97292 19.1246 7.9132 19.6794C8.54556 20.0525 9.16299 20.0658 9.80001 19.6981C12.1622 18.3342 14.5274 16.976 16.8906 15.6135C17.1835 15.4441 17.3999 15.2285 17.5424 14.971L8.90265 9.9659" fill="#1A4674"/>
<path d="M6.32751 11.4487C6.83342 12.3319 7.78446 12.9276 8.87543 12.9276C9.97314 12.9276 10.9296 12.3243 11.4329 11.4317L8.90258 9.9659L6.32751 11.4487" fill="#1A4674"/>
<path d="M17.7489 5.88333C17.7488 5.54791 17.677 5.25152 17.532 4.99715L8.90259 9.9659L17.5424 14.971C17.6809 14.7205 17.7497 14.4299 17.7498 14.1017C17.7498 14.1017 17.7498 8.62333 17.7489 5.88333" fill="#1B598E"/>
<path d="M17.2739 10.3237H16.5988V10.999H15.9235V10.3237H15.2484V9.64862H15.9235V8.97348H16.5988V9.64862H17.2739V10.3237Z" fill="white"/>
<path d="M14.8104 10.3237H14.1353V10.999H13.4602V10.3237H12.785V9.64862H13.4602V8.97348H14.1353V9.64862H14.8104V10.3237Z" fill="white"/>
<path d="M11.433 11.4317C10.9297 12.3243 9.97325 12.9276 8.87554 12.9276C7.78457 12.9276 6.83353 12.3319 6.32763 11.4487C6.07348 11.0055 5.94002 10.5034 5.94054 9.99257C5.94054 8.37167 7.25464 7.05764 8.87554 7.05764C9.9595 7.05764 10.9055 7.6459 11.4139 8.52007L13.9793 7.04285C12.9596 5.28271 11.056 4.09854 8.87554 4.09854C5.62026 4.09854 2.98145 6.73743 2.98145 9.99257C2.98145 11.0605 3.26554 12.0619 3.76207 12.9258C4.77915 14.6952 6.68825 15.8867 8.87554 15.8867C11.0669 15.8867 12.9789 14.6904 13.9946 12.9158L11.433 11.4317Z" fill="white"/>
</g>
<defs>
<clipPath id="clip0_212_18">
<rect width="17.78" height="20" fill="white"/>
</clipPath>
</defs>
</svg>
