<svg width="20" height="20" viewBox="0 0 20 20" fill="none" xmlns="http://www.w3.org/2000/svg">
<path d="M3.57254 16.4991L2.21301 1.21312H17.157L15.7956 16.4967L9.67591 18.1969L3.57254 16.4991Z" fill="#1572B6"/>
<path d="M9.68506 16.8976L14.6305 15.5237L15.7939 2.46324H9.68506V16.8976Z" fill="#33A9DC"/>
<path d="M9.68506 8.00117H12.1608L12.3315 6.0814H9.68506V4.20651H14.3762L14.3314 4.70935L13.872 9.87605H9.68506V8.00117Z" fill="white"/>
<path d="M9.69655 12.8701L9.68808 12.8725L7.60459 12.3084L7.47142 10.8132H5.59314L5.85524 13.7569L9.68747 14.8232L9.69655 14.8208V12.8701Z" fill="#EBEBEB"/>
<path d="M12.0015 9.79659L11.7763 12.3071L9.68982 12.8713V14.822L13.5251 13.7568L13.5535 13.4402L13.8786 9.79659H12.0015Z" fill="white"/>
<path d="M9.6917 4.20651V6.0814H5.17243L5.1349 5.65984L5.04955 4.70935L5.00476 4.20651H9.6917Z" fill="#EBEBEB"/>
<path d="M9.68497 8.00116V9.87604H7.62752L7.58999 9.45448L7.50524 8.504L7.46045 8.00116H9.68497Z" fill="#EBEBEB"/>
</svg>
