<svg width="54" height="20" viewBox="0 0 54 20" fill="none" xmlns="http://www.w3.org/2000/svg">
<g clip-path="url(#clip0_212_101)">
<path d="M30.4755 1.38488L30.5926 1.46301C31.9688 2.37186 32.9556 3.61832 33.6048 5.12447C33.7606 5.35811 33.6567 5.48801 33.3451 5.56582L32.8177 5.70082C31.6253 6.00801 30.6791 6.26634 29.5024 6.57353L28.8312 6.74832C28.5895 6.80811 28.5229 6.78301 28.2658 6.4903L28.2295 6.44874C27.863 6.03332 27.5884 5.75582 27.1028 5.50811L27.0091 5.46197C25.3732 4.65707 23.7892 4.89072 22.3091 5.85155C20.5433 6.99405 19.6344 8.68197 19.6604 10.7853C19.6864 12.8626 21.1145 14.5764 23.166 14.8621C24.9317 15.0958 26.4118 14.4726 27.5804 13.1483C27.8141 12.8626 28.0218 12.551 28.2814 12.1875H23.27C22.7246 12.1875 22.5949 11.85 22.7766 11.4085L22.8666 11.1965C23.2004 10.4201 23.718 9.30405 24.0541 8.66592L24.1275 8.52853C24.2172 8.3729 24.3995 8.16259 24.7501 8.16259H33.1067C33.482 6.97353 34.091 5.84999 34.9032 4.78686C36.7988 2.29405 39.0839 0.995612 42.174 0.450404C44.8227 -0.0170961 47.3156 0.242591 49.5746 1.77467C51.6261 3.17686 52.8985 5.07259 53.2361 7.5653C53.6775 11.0709 52.6648 13.9273 50.2499 16.3682C48.536 18.108 46.4327 19.1986 44.0177 19.692C43.3166 19.8219 42.6155 19.8478 41.9404 19.9257C39.5774 19.8737 37.422 19.1986 35.6043 17.6406C34.3259 16.5354 33.4453 15.1773 33.0077 13.596C32.7006 14.2157 32.3354 14.8048 31.917 15.3554C30.0474 17.8224 27.6065 19.3544 24.5164 19.77C21.9716 20.1075 19.6086 19.614 17.5312 18.056C15.6096 16.6019 14.519 14.6803 14.2333 12.2914C13.8958 9.46092 14.7267 6.91613 16.4406 4.68301C18.2843 2.26801 20.7252 0.736029 23.7114 0.190716C26.1071 -0.242617 28.4028 0.0245705 30.4756 1.38488H30.4755ZM42.8283 5.10592L42.7452 5.12447C40.3303 5.66978 38.7722 7.20176 38.201 9.6427C37.7335 11.6681 38.7203 13.7196 40.59 14.5505C42.0181 15.1737 43.4463 15.0958 44.8226 14.3947C46.874 13.3301 47.9906 11.6681 48.1205 9.43499C48.0944 9.09749 48.0944 8.8377 48.0425 8.57801C47.5804 6.03624 45.265 4.58592 42.8283 5.10592V5.10592ZM12.13 9.8504C12.2338 9.8504 12.2858 9.92832 12.2858 10.0322L12.2338 10.6554C12.2338 10.7593 12.13 10.8372 12.052 10.8372L6.39121 10.8112C6.28735 10.8112 6.26142 10.7333 6.31329 10.6554L6.67683 10.0062C6.72881 9.92832 6.83267 9.8504 6.93652 9.8504H12.13V9.8504ZM12.7012 7.46145C12.8051 7.46145 12.857 7.53936 12.8311 7.61728L12.6233 8.24051C12.5974 8.34436 12.4935 8.39624 12.3896 8.39624L0.107146 8.42228C0.00329204 8.42228 -0.0226455 8.3703 0.0292295 8.29238L0.574542 7.59134C0.626521 7.51342 0.756313 7.46145 0.860167 7.46145H12.7012ZM14.0515 5.07249C14.1554 5.07249 14.1813 5.1504 14.1294 5.22832L13.688 5.90342C13.636 5.98134 13.5062 6.05926 13.4283 6.05926L4.02829 6.03322C3.92433 6.03322 3.8984 5.98134 3.95027 5.90342L4.49558 5.20238C4.54756 5.12447 4.67735 5.07249 4.78121 5.07249H14.0515Z" fill="#00ACD7"/>
</g>
<defs>
<clipPath id="clip0_212_101">
<rect width="53.34" height="20" fill="white"/>
</clipPath>
</defs>
</svg>
