<svg width="20" height="20" viewBox="0 0 20 20" fill="none" xmlns="http://www.w3.org/2000/svg">
<g clip-path="url(#clip0)">
<path d="M19.3352 3.8049L17.5769 17.8038L9.67314 19.361L1.79117 17.8059L0.034668 3.8049H19.3352Z" fill="#E44D26"/>
<path d="M9.68506 18.1707L16.0717 16.9123L17.5742 4.94966H9.68506V18.1707Z" fill="#F16529"/>
<path d="M6.26684 8.38404H9.68496V6.66687H3.62622L3.68402 7.12755L4.27792 11.8596H9.68496V10.1424H6.48767L6.26684 8.38404Z" fill="#EBEBEB"/>
<path d="M6.81139 12.7182H4.38586L4.72435 15.4144L9.67383 16.3909L9.68495 16.3887V14.6021L9.67436 14.6041L6.98343 14.0877L6.81139 12.7182Z" fill="#EBEBEB"/>
<path d="M1.83044 0H3.05834V0.862159H4.1816V0H5.40957V2.61083H4.18168V1.73658H3.05841V2.61083H1.83052V0H1.83044Z" fill="black"/>
<path d="M7.02418 0.865815H5.94336V0H9.3338V0.865815H8.2523V2.61083H7.02441V0.865815H7.02433H7.02418Z" fill="black"/>
<path d="M9.87183 0H11.1521L11.9397 0.917378L12.7265 0H14.0074V2.61083H12.7845V1.31676L11.9397 2.24505H11.9185L11.0732 1.31676V2.61083H9.87183V0Z" fill="black"/>
<path d="M14.6185 0H15.8468V1.74787H17.5735V2.61083H14.6184V0H14.6185Z" fill="black"/>
<path d="M9.67671 11.8596H12.652L12.3715 14.0867L9.67664 14.6036V16.3901L14.63 15.4144L14.6664 15.1243L15.2342 10.6036L15.2932 10.1425H9.67671V11.8596Z" fill="white"/>
<path d="M9.67664 8.37984V8.38404H15.513L15.5614 7.99809L15.6715 7.12755L15.7293 6.66687H9.67664V8.3799V8.37984Z" fill="white"/>
</g>
<defs>
<clipPath id="clip0">
<rect width="19.37" height="19.41" fill="white"/>
</clipPath>
</defs>
</svg>
