<svg width="20" height="20" viewBox="0 0 20 20" fill="none" xmlns="http://www.w3.org/2000/svg">
<g clip-path="url(#clip0)">
<path d="M0 0H19.373V19.4065H0V0Z" fill="#F7DF1E"/>
<path d="M2.72437 12.4628L4.20685 11.5641C4.49291 12.072 4.75308 12.5019 5.37718 12.5019C5.97539 12.5019 6.35264 12.2675 6.35264 11.3557V5.15485H8.17317V11.3814C8.17317 13.2703 7.06785 14.1301 5.4552 14.1301C3.99882 14.1301 3.15352 13.3747 2.72437 12.4628Z" fill="black"/>
<path d="M9.6866 12.3717L11.1689 11.512C11.5592 12.1503 12.0664 12.6193 12.9636 12.6193C13.718 12.6193 14.199 12.2415 14.199 11.7204C14.199 11.0951 13.7048 10.8736 12.8725 10.509L12.4175 10.3134C11.104 9.75342 10.2328 9.04993 10.2328 7.56489C10.2328 6.19703 11.2731 5.15485 12.8987 5.15485C14.056 5.15485 14.8883 5.55874 15.4865 6.61389L14.0689 7.52584C13.7567 6.96571 13.4188 6.74428 12.8986 6.74428C12.3654 6.74428 12.0272 7.08298 12.0272 7.52584C12.0272 8.07294 12.3654 8.29452 13.1456 8.63322L13.6007 8.82858C15.1483 9.49302 16.0195 10.1704 16.0195 11.6944C16.0195 13.3359 14.7321 14.2346 13.0026 14.2346C11.312 14.2346 10.2197 13.427 9.68652 12.3718" fill="black"/>
</g>
<defs>
<clipPath id="clip0">
<rect width="19.373" height="19.4065" rx="9.68649" fill="white"/>
</clipPath>
</defs>
</svg>
