<svg width="20" height="20" viewBox="0 0 20 20" fill="none" xmlns="http://www.w3.org/2000/svg">
<g clip-path="url(#clip0_212_62)">
<path d="M9.99996 0.666673L10.492 0.216006C10.4295 0.147692 10.3535 0.0931353 10.2688 0.0558093C10.1841 0.0184834 10.0925 -0.000793457 9.99996 -0.000793457C9.9074 -0.000793457 9.81585 0.0184834 9.73114 0.0558093C9.64643 0.0931353 9.57043 0.147692 9.50796 0.216006L9.99996 0.666673ZM9.99996 18L9.47596 18.412C9.53835 18.4913 9.61793 18.5554 9.70869 18.5995C9.79946 18.6436 9.89906 18.6665 9.99996 18.6665C10.1009 18.6665 10.2005 18.6436 10.2912 18.5995C10.382 18.5554 10.4616 18.4913 10.524 18.412L9.99996 18ZM6.16396 13.1173L5.63996 13.5307L6.16396 13.1173ZM6.49196 4.49467L5.99996 4.04267L6.49196 4.49201V4.49467ZM13.508 4.49467L14 4.04401L13.508 4.49334V4.49467ZM13.836 13.1173L14.36 13.5307L13.836 13.1173ZM10.6666 20V0.666673H9.3333V20H10.6666ZM10.524 17.588L6.68796 12.7067L5.63996 13.5307L9.47596 18.4133L10.524 17.5893V17.588ZM6.98263 4.94401L10.4933 1.11734L9.50663 0.216006L5.99996 4.04267L6.9813 4.94401H6.98263ZM9.50796 1.11734L13.0173 4.94401L14 4.04401L10.492 0.217339L9.50663 1.11601L9.50796 1.11734ZM13.312 12.7053L9.47596 17.588L10.524 18.412L14.36 13.5293L13.312 12.7053V12.7053ZM13.0173 4.94534C13.978 5.99416 14.5349 7.35017 14.5887 8.77149C14.6424 10.1928 14.1894 11.587 13.3106 12.7053L14.36 13.5293C15.4341 12.1622 15.9876 10.4579 15.9217 8.72057C15.8557 6.9832 15.1746 5.32577 14 4.04401L13.0173 4.94401V4.94534ZM6.68796 12.7053C5.80933 11.5868 5.35662 10.1926 5.41059 8.77124C5.46456 7.34992 6.0217 5.994 6.98263 4.94534L5.99996 4.04267C4.82528 5.32444 4.14422 6.98187 4.07828 8.71924C4.01234 10.4566 4.56582 12.1609 5.63996 13.528L6.68796 12.704V12.7053Z" fill="#0FA958"/>
</g>
<defs>
<clipPath id="clip0_212_62">
<rect width="20" height="20" fill="white"/>
</clipPath>
</defs>
</svg>
