<svg width="20" height="20" viewBox="0 0 20 20" fill="none" xmlns="http://www.w3.org/2000/svg">
<path d="M10.3136 11.2036C11.1495 11.2036 11.8271 10.5248 11.8271 9.68746C11.8271 8.85012 11.1495 8.17133 10.3136 8.17133C9.47767 8.17133 8.80005 8.85012 8.80005 9.68746C8.80005 10.5248 9.47767 11.2036 10.3136 11.2036Z" fill="#007ACC"/>
<path d="M10.3136 13.1637C8.4944 13.2077 6.6798 12.9621 4.93757 12.4359C4.13275 12.1803 3.38212 11.7778 2.7236 11.2485C2.47231 11.0677 2.26305 10.8345 2.11017 10.5651C1.95728 10.2957 1.8644 9.99626 1.83789 9.68747C1.83789 8.68501 2.93731 7.70256 4.77895 7.05972C6.56776 6.49011 8.43676 6.21405 10.3136 6.24222C12.1653 6.21631 14.0093 6.48738 15.7755 7.04516C16.5506 7.29269 17.2758 7.67583 17.9175 8.1768C18.1644 8.34918 18.3706 8.57386 18.5212 8.83492C18.6719 9.09599 18.7634 9.38704 18.7892 9.68747C18.7892 10.7294 17.5603 11.7852 15.5806 12.4414C13.8721 12.9504 12.0958 13.194 10.3136 13.1637V13.1637ZM10.3136 6.96754C8.518 6.9435 6.73007 7.20594 5.01687 7.74501C3.32174 8.33751 2.56196 9.14773 2.56196 9.68565C2.56196 10.2484 3.37865 11.1333 5.17186 11.7476C6.83858 12.2484 8.574 12.4816 10.3136 12.4383C12.0186 12.4689 13.7183 12.2378 15.3536 11.753C17.2152 11.1351 18.0628 10.249 18.0628 9.68747C18.0322 9.49476 17.9621 9.31049 17.8569 9.14629C17.7516 8.9821 17.6135 8.84155 17.4513 8.73353C16.8772 8.28908 16.2294 7.94953 15.5376 7.73046C13.8479 7.19906 12.0844 6.9415 10.3136 6.96754V6.96754Z" fill="#007ACC"/>
<path d="M6.87485 17.2493C6.59243 17.2558 6.31334 17.1872 6.06603 17.0504C5.19909 16.5495 4.8988 15.1049 5.26265 13.1855C5.66382 11.3486 6.35892 9.58878 7.32103 7.97423C8.22353 6.35446 9.37891 4.88977 10.7434 3.63568C11.3447 3.08666 12.0383 2.6487 12.7921 2.34212C13.0647 2.21412 13.3622 2.14777 13.6633 2.14777C13.9644 2.14777 14.2618 2.21412 14.5344 2.34212C15.4359 2.86245 15.7344 4.45621 15.3136 6.50177C14.9 8.23898 14.223 9.90241 13.3061 11.434C12.4353 13.0347 11.3163 14.4866 9.99087 15.7356C9.36778 16.3061 8.64465 16.7562 7.85803 17.0631C7.54311 17.1802 7.2107 17.2432 6.87485 17.2493V17.2493ZM7.94823 8.33446C7.0305 9.88051 6.36429 11.563 5.97461 13.3189C5.63982 15.0867 5.96129 16.1498 6.42866 16.4203C6.91299 16.7011 8.08869 16.4348 9.51623 15.1855C10.7815 13.989 11.8496 12.5992 12.6807 11.0677C13.5591 9.60347 14.2085 8.01313 14.6065 6.35197C15.0024 4.42649 14.6604 3.24755 14.1748 2.96737C13.9928 2.89752 13.7984 2.86625 13.6037 2.87554C13.4091 2.88483 13.2185 2.93448 13.0439 3.02134C12.3729 3.2987 11.7561 3.69246 11.2217 4.18452C9.91802 5.38577 8.81438 6.78797 7.95247 8.3381L7.94823 8.33446Z" fill="#007ACC"/>
<path d="M13.7504 17.2572C12.9301 17.2572 11.8882 16.7599 10.8033 15.8254C9.41493 14.5599 8.24 13.0778 7.32404 11.4365C6.37399 9.84414 5.6844 8.10981 5.2814 6.29922C5.10662 5.50264 5.07424 4.68132 5.18575 3.87341C5.21152 3.57371 5.30263 3.28332 5.45263 3.02272C5.60263 2.76212 5.80788 2.53766 6.0539 2.36517C6.95413 1.84301 8.48157 2.37972 10.0405 3.76607C11.3364 4.99243 12.4369 6.41062 13.3036 7.9712C14.2531 9.52636 14.9499 11.2227 15.3681 12.9969C15.5504 13.8227 15.5785 14.6752 15.451 15.5112C15.4207 15.8195 15.3241 16.1176 15.168 16.3851C15.0119 16.6526 14.7999 16.883 14.5465 17.0607C14.3032 17.1958 14.0285 17.2636 13.7504 17.2572V17.2572ZM7.95063 11.0714C8.82934 12.6399 9.95167 14.0584 11.2755 15.2735C12.6371 16.447 13.7171 16.6993 14.1815 16.4257C14.6658 16.1437 15.023 14.9927 14.6549 13.1303C14.2516 11.4364 13.5833 9.81719 12.6746 8.33265C11.8475 6.83903 10.7971 5.48103 9.5598 4.30581C8.0923 3.00073 6.90207 2.70902 6.41714 2.99042C6.266 3.11346 6.14196 3.26655 6.05287 3.44003C5.96378 3.61352 5.91156 3.80362 5.89952 3.99834C5.80326 4.71886 5.83462 5.45073 5.99215 6.16034C6.37979 7.89184 7.04116 9.55017 7.95124 11.0726L7.95063 11.0714Z" fill="#007ACC"/>
</svg>
