<svg width="14" height="18" viewBox="0 0 14 18" fill="none" xmlns="http://www.w3.org/2000/svg">
<path d="M8.20463 0H2.25C1.65326 0 1.08097 0.237053 0.65901 0.65901C0.237053 1.08097 0 1.65326 0 2.25V15.75C0 16.3467 0.237053 16.919 0.65901 17.341C1.08097 17.7629 1.65326 18 2.25 18H11.25C11.8467 18 12.419 17.7629 12.841 17.341C13.2629 16.919 13.5 16.3467 13.5 15.75V5.29537C13.4999 4.99703 13.3814 4.71093 13.1704 4.5L9 0.329625C8.78907 0.118632 8.50297 6.37171e-05 8.20463 0V0ZM8.4375 3.9375V1.6875L11.8125 5.0625H9.5625C9.26413 5.0625 8.97798 4.94397 8.76701 4.73299C8.55603 4.52202 8.4375 4.23587 8.4375 3.9375ZM10.125 9C10.125 9.89511 9.76942 10.7536 9.13649 11.3865C8.50355 12.0194 7.64511 12.375 6.75 12.375C5.85489 12.375 4.99645 12.0194 4.36351 11.3865C3.73058 10.7536 3.375 9.89511 3.375 9C3.375 8.10489 3.73058 7.24645 4.36351 6.61351C4.99645 5.98058 5.85489 5.625 6.75 5.625C7.64511 5.625 8.50355 5.98058 9.13649 6.61351C9.76942 7.24645 10.125 8.10489 10.125 9V9ZM12.375 15.4744V15.75C12.375 16.0484 12.2565 16.3345 12.0455 16.5455C11.8345 16.7565 11.5484 16.875 11.25 16.875H2.25C1.95163 16.875 1.66548 16.7565 1.4545 16.5455C1.24353 16.3345 1.125 16.0484 1.125 15.75V15.4744C1.125 15.4744 2.25 13.5 6.75 13.5C11.25 13.5 12.375 15.4744 12.375 15.4744Z" fill="black"/>
</svg>
