<svg width="20" height="20" viewBox="0 0 20 20" fill="none" xmlns="http://www.w3.org/2000/svg">
<g clip-path="url(#clip0)">
<path d="M16.6668 11.1723C15.993 11.1769 15.4073 11.3938 14.9169 11.7143C14.737 11.2382 14.557 10.814 14.5253 10.5028C14.49 10.1399 14.4477 9.9183 14.49 9.48461C14.5324 9.05092 14.7229 8.43334 14.7193 8.38623C14.7158 8.33912 14.677 8.11752 14.2889 8.11287C13.9009 8.10812 13.5657 8.21184 13.5269 8.34852C13.4881 8.4852 13.414 8.79636 13.3646 9.11683C13.2976 9.58833 12.5885 11.2711 12.1828 12.1527C12.0522 11.8087 11.9393 11.5069 11.9146 11.2665C11.8793 10.9036 11.837 10.682 11.8793 10.2483C11.9217 9.81458 12.1122 9.1971 12.1087 9.14989C12.1051 9.10278 12.0663 8.88118 11.6782 8.87653C11.2901 8.87178 10.955 8.9755 10.9162 9.11218C10.8774 9.24896 10.835 9.56943 10.7539 9.88059C10.6727 10.1918 9.73081 13.0014 9.48386 13.7272C9.38406 14.021 9.27937 14.3118 9.16988 14.5993C9.16988 14.5993 9.16632 14.6135 9.15573 14.6371C9.12133 14.7272 9.08607 14.8168 9.04996 14.9058V14.9104C8.997 15.0378 8.94056 15.1556 8.91234 15.1556C8.89115 15.1556 8.85234 14.8162 8.91937 14.3542C9.06047 13.3784 9.39564 11.8605 9.39216 11.8087C9.39216 11.7803 9.45564 11.5164 9.17343 11.3796C8.89819 11.2429 8.79945 11.4692 8.77471 11.4692C8.75005 11.4692 8.73234 11.5493 8.73234 11.5493C8.73234 11.5493 9.03937 9.84289 8.14675 9.84289C7.58938 9.84289 6.82024 10.6584 6.43922 11.3938C6.00609 11.7087 5.57332 12.0246 5.14093 12.3413C4.93287 12.4969 4.71762 12.6525 4.51652 12.7986C4.50237 12.7798 4.4883 12.7561 4.47415 12.7373C3.39459 11.1958 1.39782 10.1068 1.48248 8.03745C1.51425 7.28319 1.70824 5.30327 5.31736 2.89916C8.28785 0.942792 10.6516 1.48486 11.0609 2.68696C11.6465 4.40293 9.79436 7.58961 6.72498 8.0515C5.55372 8.22599 4.93983 7.62256 4.78465 7.39632C4.62237 7.16056 4.59763 7.14641 4.53763 7.19362C4.4389 7.26439 4.50237 7.47648 4.53763 7.59901C4.6294 7.91948 5.00686 8.4852 5.64542 8.76341C6.2099 9.00846 7.58226 9.14524 9.24395 8.28725C11.1032 7.32555 12.5567 4.65273 12.1299 2.41361C11.7029 0.141422 8.88056 -0.608087 6.2099 0.659932C4.62237 1.41429 2.90069 2.60215 1.66239 4.14837C0.191219 5.98676 -0.0416564 7.58486 0.0535972 8.2543C0.395875 10.6301 2.8478 12.1763 3.82856 13.3218C3.77916 13.3595 3.73323 13.3926 3.69449 13.4209C3.20408 13.7461 1.33426 15.0518 0.868587 16.4331C0.339434 17.9981 0.953324 19.1202 1.359 19.2709C2.61848 19.7376 3.91322 18.8986 4.60822 17.5126C5.30321 16.1267 5.21855 14.3259 4.89754 13.501C4.89398 13.4916 4.8905 13.4821 4.88339 13.4727C5.01042 13.3737 5.14093 13.27 5.26796 13.171C5.50143 12.9866 5.73787 12.8089 5.9771 12.6382C5.85711 13.0767 5.76889 13.5999 5.7266 14.3542C5.67364 15.2405 5.94525 16.3906 6.3016 16.8431C6.46041 17.0413 6.64736 17.0459 6.76735 17.0459C7.18362 17.0459 7.37065 16.5839 7.57878 16.0371C7.83277 15.3678 8.06209 14.5899 8.06209 14.5899C8.06209 14.5899 7.77633 16.6924 8.5525 16.6924C8.83471 16.6924 9.12047 16.2021 9.2475 15.9523V15.9569C9.2475 15.9569 9.25454 15.9428 9.26869 15.9098C9.29691 15.8486 9.31453 15.8108 9.31453 15.8108V15.8015C9.42742 15.5374 9.68148 14.9387 10.0589 13.9441C10.5458 12.6619 11.015 11.0591 11.015 11.0591C11.015 11.0591 11.0574 11.4504 11.202 12.1009C11.2867 12.4827 11.463 12.9023 11.6042 13.3077C11.4913 13.5199 11.4207 13.6376 11.4207 13.6376L11.4243 13.6424C11.3325 13.8026 11.2338 13.977 11.1244 14.1469C10.7398 14.7596 10.2812 15.4621 10.2177 15.6647C10.1435 15.9051 10.1612 16.0796 10.3024 16.221C10.4047 16.3247 10.5881 16.3388 10.7751 16.3247C11.1209 16.2917 11.3643 16.1785 11.4842 16.1079C11.6712 16.0183 11.8899 15.8815 12.0945 15.6788C12.4721 15.3064 12.7013 14.7737 12.6802 14.0714C12.6696 13.6849 12.5743 13.2983 12.4579 12.9352C12.4932 12.8693 12.5249 12.8033 12.5603 12.7373C13.1565 11.5729 13.6187 10.2954 13.6187 10.2954C13.6187 10.2954 13.661 10.6866 13.8056 11.3373C13.8762 11.6672 14.0209 12.0255 14.1478 12.3743C13.5869 12.9825 13.2411 13.6895 13.1176 14.1515C12.8954 15.0095 13.0682 15.396 13.3964 15.4855C13.5445 15.528 13.7562 15.4337 13.9114 15.3441C14.109 15.2593 14.3419 15.1132 14.5642 14.8963C14.9417 14.5239 15.305 14.0053 15.2838 13.303C15.2732 12.9825 15.2097 12.6665 15.1215 12.3601C15.5978 12.0963 16.2117 11.9501 16.9948 12.0726C18.6742 12.3366 19.0058 13.7366 18.9423 14.326C18.8788 14.9152 18.526 15.2357 18.4096 15.3347C18.2931 15.4338 18.2544 15.4667 18.265 15.5374C18.279 15.6411 18.3355 15.6365 18.4343 15.6176C18.5719 15.5846 19.3163 15.1414 19.348 14.0572C19.401 12.6713 18.4131 11.1581 16.6668 11.1723ZM3.71212 17.0082C3.15467 17.819 2.37857 18.1254 2.04341 17.8662C1.68358 17.588 1.82468 16.3906 2.50908 15.5327C2.92535 15.0095 3.46162 14.5238 3.81797 14.2269C3.89907 14.1609 4.01907 14.0667 4.16373 13.9488C4.18839 13.9299 4.20254 13.9205 4.20254 13.9205L4.2872 13.8497C4.53763 15.0754 4.29779 16.155 3.71212 17.0082ZM7.76929 13.3218C7.57523 13.9536 7.16955 15.5705 6.9226 15.4809C6.71091 15.4055 6.58032 14.1798 6.88023 12.9683C7.03193 12.3601 7.35295 11.6342 7.53997 11.3514C7.84336 10.8988 8.17853 10.7479 8.25963 10.9319C8.362 11.1723 7.88921 12.9258 7.76929 13.3218ZM11.1173 15.462C11.0361 15.5186 10.9586 15.5563 10.9233 15.528C10.8986 15.5091 10.9586 15.4337 10.9586 15.4337C10.9586 15.4337 11.3784 14.8303 11.5442 14.5569C11.6395 14.3967 11.7523 14.2081 11.8723 13.9959V14.0572C11.8723 14.7785 11.3501 15.264 11.1172 15.462H11.1173ZM13.6998 14.6748C13.6398 14.6181 13.6504 14.4296 13.8515 13.8403C13.9291 13.6093 14.1125 13.2229 14.4265 12.8504C14.4618 13.0013 14.4865 13.1474 14.483 13.2841C14.4794 14.194 13.9926 14.5333 13.6998 14.6748Z" fill="#CD6799"/>
</g>
<defs>
<clipPath id="clip0">
<rect width="19.37" height="19.41" fill="white"/>
</clipPath>
</defs>
</svg>
